<svg width="16" height="16" viewBox="0 0 16 16" fill="none" xmlns="http://www.w3.org/2000/svg">
<path d="M3.99984 14.6667C3.63317 14.6667 3.31928 14.5361 3.05817 14.275C2.79706 14.0139 2.6665 13.7 2.6665 13.3333V6.66666C2.6665 6.29999 2.79706 5.9861 3.05817 5.72499C3.31928 5.46388 3.63317 5.33332 3.99984 5.33332H4.6665V3.99999C4.6665 3.07777 4.9915 2.29166 5.6415 1.64166C6.2915 0.991657 7.07761 0.666656 7.99984 0.666656C8.92206 0.666656 9.70817 0.991657 10.3582 1.64166C11.0082 2.29166 11.3332 3.07777 11.3332 3.99999V5.33332H11.9998C12.3665 5.33332 12.6804 5.46388 12.9415 5.72499C13.2026 5.9861 13.3332 6.29999 13.3332 6.66666V13.3333C13.3332 13.7 13.2026 14.0139 12.9415 14.275C12.6804 14.5361 12.3665 14.6667 11.9998 14.6667H3.99984ZM3.99984 13.3333H11.9998V6.66666H3.99984V13.3333ZM7.99984 11.3333C8.3665 11.3333 8.68039 11.2028 8.9415 10.9417C9.20261 10.6805 9.33317 10.3667 9.33317 9.99999C9.33317 9.63332 9.20261 9.31943 8.9415 9.05832C8.68039 8.79721 8.3665 8.66666 7.99984 8.66666C7.63317 8.66666 7.31928 8.79721 7.05817 9.05832C6.79706 9.31943 6.6665 9.63332 6.6665 9.99999C6.6665 10.3667 6.79706 10.6805 7.05817 10.9417C7.31928 11.2028 7.63317 11.3333 7.99984 11.3333ZM5.99984 5.33332H9.99984V3.99999C9.99984 3.44443 9.80539 2.97221 9.4165 2.58332C9.02761 2.19443 8.55539 1.99999 7.99984 1.99999C7.44428 1.99999 6.97206 2.19443 6.58317 2.58332C6.19428 2.97221 5.99984 3.44443 5.99984 3.99999V5.33332Z" fill="white"/>
</svg>
